<?xml version="1.0" encoding="utf-8"?><svg xmlns="http://www.w3.org/2000/svg" xmlns:xlink="http://www.w3.org/1999/xlink"><symbol viewBox="0 0 16 16" id="clock" xmlns="http://www.w3.org/2000/svg"><path d="M8 0C3.589 0 0 3.589 0 8s3.589 8 8 8 8-3.589 8-8-3.589-8-8-8zm3.805 12.138a.665.665 0 01-.943 0L7.53 8.805a.664.664 0 01-.196-.472V4a.666.666 0 111.334 0v4.057l3.138 3.138c.26.261.26.682 0 .943z"/></symbol><symbol viewBox="0 0 14 14" id="close" xmlns="http://www.w3.org/2000/svg"><path d="M7 5.586l4.95-4.95 1.414 1.414L8.414 7l4.95 4.95-1.414 1.414L7 8.414l-4.95 4.95L.636 11.95 5.586 7 .636 2.05 2.05.636 7 5.586z"/></symbol><symbol viewBox="0 0 20 20" id="emotion-happy" xmlns="http://www.w3.org/2000/svg"><path d="M10 18.333a8.333 8.333 0 110-16.666 8.333 8.333 0 110 16.666zm0-1.666a6.667 6.667 0 100-13.334 6.667 6.667 0 000 13.334zm-4.167-5.834H7.5a2.5 2.5 0 105 0h1.667a4.167 4.167 0 11-8.334 0zm.834-1.666a1.25 1.25 0 110-2.5 1.25 1.25 0 010 2.5zm6.666 0a1.25 1.25 0 110-2.5 1.25 1.25 0 010 2.5z"/></symbol><symbol viewBox="0 0 15 20" id="kcal" xmlns="http://www.w3.org/2000/svg"><path d="M9.417 0c-3.978 2.456-3.5 9.375-3.5 9.375s-1.75-.625-1.75-3.437C2.079 7.235.667 9.728.667 12.5c0 4.142 3.134 7.5 7 7.5s7-3.358 7-7.5c0-6.094-5.25-7.344-5.25-12.5zM8.282 17.416c-1.407.375-2.832-.542-3.182-2.049-.351-1.507.505-3.033 1.912-3.41 3.396-.906 3.821-2.953 3.821-2.953s1.694 7.278-2.551 8.412z"/></symbol><symbol viewBox="0 0 35 24" id="payment-apple-pay" xmlns="http://www.w3.org/2000/svg"><rect rx="4"/><path fill-rule="evenodd" clip-rule="evenodd" d="M8.346 8.933c.47.04.94-.238 1.234-.59.289-.362.48-.847.43-1.343-.415.02-.93.278-1.223.64-.27.312-.5.817-.44 1.293zm5.592 6.384V7.59h2.864c1.479 0 2.512 1.03 2.512 2.537s-1.053 2.548-2.551 2.548h-1.64v2.642h-1.185zm-3.932-6.29c-.414-.024-.792.126-1.097.248-.197.078-.363.144-.49.144-.141 0-.315-.07-.509-.148-.255-.103-.546-.22-.852-.214-.7.01-1.35.411-1.708 1.05-.735 1.28-.191 3.173.519 4.213.347.516.763 1.08 1.312 1.061.241-.01.415-.084.594-.16.207-.09.422-.182.757-.182.324 0 .53.09.727.176.187.082.367.161.634.156.568-.01.926-.515 1.273-1.03.376-.554.54-1.094.566-1.176l.002-.01-.013-.006c-.125-.058-1.084-.502-1.093-1.693-.01-1 .76-1.507.881-1.586l.015-.01c-.49-.734-1.254-.813-1.518-.833zm11.472 6.35c.744 0 1.435-.383 1.748-.987h.024v.927h1.097V11.47c0-1.116-.881-1.834-2.237-1.834-1.259 0-2.189.728-2.223 1.73h1.067c.088-.476.524-.789 1.121-.789.725 0 1.131.342 1.131.972v.426l-1.478.09c-1.376.084-2.12.654-2.12 1.645 0 1.001.768 1.665 1.87 1.665zm.318-.918c-.631 0-1.033-.307-1.033-.778 0-.486.387-.768 1.126-.813l1.317-.084v.436c0 .724-.607 1.24-1.41 1.24zm6.19 1.16c-.476 1.353-1.02 1.8-2.175 1.8a3.23 3.23 0 01-.45-.03v-.927c.073.01.254.02.347.02.524 0 .818-.224 1-.803l.107-.343-2.008-5.625h1.24l1.395 4.565h.024l1.396-4.565h1.204l-2.08 5.908zM15.121 8.601h1.367c1.028 0 1.615.555 1.615 1.531 0 .977-.587 1.537-1.62 1.537h-1.362V8.6z"/></symbol><symbol viewBox="0 0 35 24" id="payment-bitcoin" xmlns="http://www.w3.org/2000/svg"><rect rx="4"/><path fill-rule="evenodd" clip-rule="evenodd" d="M25.627 12.065A8.064 8.064 0 1117.563 4a8.064 8.064 0 018.064 8.065zM19.5 9.068c1.122.386 1.942.962 1.782 2.036-.117.786-.555 1.166-1.136 1.3.797.413 1.069 1.197.817 2.146-.48 1.366-1.62 1.48-3.135 1.195l-.368 1.468-.888-.22.363-1.449a37.58 37.58 0 01-.708-.183l-.365 1.455-.887-.22.367-1.471-1.79-.45.442-1.014s.655.173.646.16c.252.063.364-.1.407-.21l.998-3.983c.01-.188-.054-.425-.414-.515.013-.01-.646-.16-.646-.16l.237-.945 1.792.442.364-1.454.888.22-.357 1.426c.239.054.479.11.712.167l.355-1.416.888.22-.364 1.455zm-2.126 2.426c.606.16 1.922.51 2.152-.406.234-.936-1.045-1.22-1.672-1.358l-.184-.042-.443 1.768.147.038zm-.685 2.846c.725.191 2.31.609 2.562-.4.258-1.031-1.279-1.375-2.029-1.542a10.343 10.343 0 01-.218-.05l-.488 1.948.173.044z"/></symbol><symbol viewBox="0 0 35 24" id="payment-etherium" xmlns="http://www.w3.org/2000/svg"><rect rx="4"/><circle cx="17.435" cy="11.935" r="7.935"/><path fill-rule="evenodd" clip-rule="evenodd" d="M17.528 6.352v8.01l3.56-2.104-3.56-5.906zM13.968 12.258l3.56 2.104v-8.01l-3.56 5.906z"/><path fill-rule="evenodd" clip-rule="evenodd" d="M17.528 10.64l-3.56 1.618 3.56 2.104 3.56-2.104-3.56-1.618z"/><path fill-rule="evenodd" clip-rule="evenodd" d="M17.528 15.036v2.913l3.562-5.016-3.562 2.103zm0-4.396l-3.56 1.618 3.56 2.104V10.64zM13.969 12.933l3.559 5.016v-2.913l-3.56-2.103z"/></symbol><symbol viewBox="0 0 35 24" id="payment-gpay" xmlns="http://www.w3.org/2000/svg"><rect rx="4"/><path fill-rule="evenodd" clip-rule="evenodd" d="M16.53 15.758v-3.02h1.56c.638 0 1.177-.215 1.617-.637l.106-.107a2.175 2.175 0 00-.106-3.045 2.225 2.225 0 00-1.618-.648h-2.503v7.457h.944zm0-3.937V9.217h1.583c.34 0 .663.13.903.368.51.5.522 1.332.03 1.85a1.23 1.23 0 01-.933.386H16.53zm7.685-.767c-.405-.374-.956-.565-1.653-.565-.897 0-1.571.333-2.017.993l.833.53c.305-.452.72-.678 1.248-.678.334 0 .657.125.909.35.246.215.387.524.387.85v.221c-.364-.202-.821-.31-1.384-.31-.656 0-1.184.155-1.576.47-.393.316-.593.732-.593 1.261-.011.482.194.94.557 1.25.37.332.839.499 1.39.499.65 0 1.166-.292 1.559-.875h.04v.708h.903v-3.146c0-.66-.199-1.183-.603-1.558zm-2.562 3.764a.775.775 0 01-.31-.624c0-.28.129-.511.38-.696.259-.184.581-.28.962-.28.528-.005.938.114 1.231.352 0 .404-.158.755-.469 1.052a1.49 1.49 0 01-1.06.446 1.143 1.143 0 01-.734-.25zM26.847 18L30 10.656h-1.026l-1.46 3.663h-.017l-1.494-3.663h-1.026l2.069 4.775L25.874 18h.973z"/><path d="M13.272 12.083a5.35 5.35 0 00-.07-.868h-3.98v1.647h2.28a1.984 1.984 0 01-.844 1.302v1.07h1.36c.797-.743 1.254-1.843 1.254-3.151z"/><path d="M9.222 16.27c1.137 0 2.098-.381 2.796-1.035l-1.36-1.07c-.38.261-.867.41-1.436.41-1.102 0-2.034-.756-2.368-1.766H5.453v1.106a4.21 4.21 0 003.769 2.355z"/><path d="M6.854 12.809a2.619 2.619 0 010-1.642v-1.1H5.453a4.3 4.3 0 000 3.842l1.401-1.1z"/><path d="M9.222 9.401a2.254 2.254 0 011.618.642l1.207-1.225a4.042 4.042 0 00-2.825-1.112 4.215 4.215 0 00-3.769 2.361l1.4 1.106c.335-1.017 1.267-1.772 2.369-1.772z"/></symbol><symbol viewBox="0 0 35 24" id="payment-mastercard" xmlns="http://www.w3.org/2000/svg"><rect rx="4"/><path fill-rule="evenodd" clip-rule="evenodd" d="M17.75 17.157a6.75 6.75 0 01-4.426 1.649c-3.769 0-6.824-3.09-6.824-6.903C6.5 8.091 9.555 5 13.324 5a6.75 6.75 0 014.426 1.649A6.75 6.75 0 0122.176 5C25.945 5 29 8.09 29 11.903c0 3.812-3.055 6.903-6.824 6.903a6.75 6.75 0 01-4.426-1.65z"/><path fill-rule="evenodd" clip-rule="evenodd" d="M17.75 17.157a6.92 6.92 0 002.398-5.254 6.92 6.92 0 00-2.398-5.254A6.75 6.75 0 0122.176 5C25.945 5 29 8.09 29 11.903c0 3.812-3.055 6.903-6.824 6.903a6.75 6.75 0 01-4.426-1.65z"/><path fill-rule="evenodd" clip-rule="evenodd" d="M17.75 6.649a6.92 6.92 0 012.398 5.254 6.92 6.92 0 01-2.398 5.254 6.92 6.92 0 01-2.398-5.254 6.92 6.92 0 012.398-5.254z"/></symbol><symbol viewBox="0 0 35 24" id="payment-paypal" xmlns="http://www.w3.org/2000/svg"><rect rx="4"/><path d="M15.236 17.769l.214-1.363-.478-.01h-2.281L14.276 6.34a.13.13 0 01.129-.11h3.848c1.277 0 2.158.266 2.618.79.216.247.353.504.42.787.07.297.07.652.003 1.084l-.005.032V9.2l.216.122c.181.097.326.207.436.333.185.21.304.478.355.795.052.326.035.714-.05 1.154a4.063 4.063 0 01-.473 1.305c-.198.332-.45.607-.749.82a3.039 3.039 0 01-1.008.455 5.032 5.032 0 01-1.26.146h-.3a.905.905 0 00-.89.76l-.022.123-.38 2.401-.017.088c-.004.028-.012.042-.023.052a.064.064 0 01-.04.014h-1.848z"/><path d="M21.708 8.956a6.438 6.438 0 01-.04.226c-.507 2.605-2.242 3.505-4.46 3.505H16.08c-.271 0-.5.197-.542.464l-.578 3.665-.164 1.04a.289.289 0 00.285.333h2.003a.482.482 0 00.475-.406l.02-.102.377-2.392.024-.131a.481.481 0 01.476-.407h.3c1.939 0 3.457-.787 3.901-3.066.185-.952.09-1.747-.401-2.306a1.912 1.912 0 00-.548-.423z"/><path d="M21.176 8.744a3.988 3.988 0 00-.493-.11 6.27 6.27 0 00-.995-.072h-3.016a.478.478 0 00-.475.407l-.642 4.063-.018.118a.548.548 0 01.542-.464h1.128c2.217 0 3.953-.9 4.46-3.505.016-.077.028-.152.04-.225a2.7 2.7 0 00-.53-.212z"/><path d="M16.199 8.97a.48.48 0 01.475-.407h3.016c.357 0 .69.023.994.072a4.562 4.562 0 01.494.11l.114.035c.15.05.289.108.417.176.151-.963-.001-1.618-.521-2.211-.574-.654-1.61-.934-2.935-.934h-3.848a.55.55 0 00-.543.465L12.26 16.434a.33.33 0 00.326.382h2.375l.596-3.784.642-4.063z"/></symbol><symbol viewBox="0 0 35 24" id="payment-visa" xmlns="http://www.w3.org/2000/svg"><rect rx="4"/><path d="M14.974 16.083h-1.979l1.238-7.654h1.979l-1.238 7.654zm7.173-7.467a4.877 4.877 0 00-1.775-.325c-1.954 0-3.33 1.042-3.339 2.532-.016 1.099.986 1.71 1.735 2.076.765.375 1.026.619 1.026.953-.008.513-.619.749-1.189.749-.79 0-1.213-.122-1.857-.407l-.26-.123-.277 1.719c.464.211 1.32.399 2.207.407 2.076 0 3.428-1.026 3.444-2.614.008-.871-.52-1.539-1.66-2.084-.693-.35-1.117-.587-1.117-.945.008-.326.359-.66 1.14-.66a3.363 3.363 0 011.474.294l.18.081.268-1.653zm2.632 4.755l.79-2.141c-.008.016.162-.448.26-.733l.138.66s.375 1.832.457 2.214h-1.645zM27.22 8.43h-1.53c-.472 0-.831.139-1.035.635l-2.94 7.019h2.077l.416-1.148h2.54c.057.268.237 1.148.237 1.148h1.832L27.22 8.429zm-15.878 0l-1.938 5.218-.212-1.058c-.358-1.222-1.482-2.549-2.736-3.208l1.775 6.693h2.093l3.11-7.646h-2.092z"/><path d="M7.604 8.43H4.42l-.032.154c2.483.635 4.128 2.166 4.804 4.006L8.5 9.073c-.114-.49-.464-.628-.896-.644z"/></symbol><symbol viewBox="0 0 20 20" id="phone" xmlns="http://www.w3.org/2000/svg"><path d="M17.5 13.683v2.947a.833.833 0 01-.775.832c-.364.025-.662.038-.892.038C8.47 17.5 2.5 11.53 2.5 4.167c0-.23.013-.528.038-.892A.833.833 0 013.37 2.5h2.947a.417.417 0 01.415.375c.019.192.036.344.053.46a11.58 11.58 0 001.007 3.334.38.38 0 01-.123.473L5.871 8.427a10.872 10.872 0 005.703 5.703l1.284-1.795a.385.385 0 01.477-.124c1.054.5 2.178.84 3.333 1.004.116.017.269.035.459.053a.417.417 0 01.374.415H17.5z"/></symbol><symbol viewBox="0 0 20 20" id="route" xmlns="http://www.w3.org/2000/svg"><path d="M3.333 12.5V7.083a3.75 3.75 0 017.5 0v5.834a2.083 2.083 0 004.167 0V7.358a2.501 2.501 0 111.667 0v5.559a3.75 3.75 0 11-7.5 0V7.083a2.083 2.083 0 00-4.167 0V12.5h2.5l-3.333 4.167L.833 12.5h2.5zm12.5-6.667a.833.833 0 100-1.667.833.833 0 000 1.667z"/></symbol><symbol viewBox="0 0 17 16" id="weight" xmlns="http://www.w3.org/2000/svg"><path d="M15.775 1.525c-.41-.477-.955-.75-1.57-.682h-11.8C1.179.843.156 2.003.36 3.231l1.637 10.231c.137 1.023 1.024 1.705 2.047 1.705h8.594c1.023 0 1.91-.75 2.046-1.705L16.32 3.231a2.246 2.246 0 00-.545-1.706zM9.772 9.71c-.204-.204-.409-.34-.682-.409l.546-2.728L8.272 6.3l-.614 2.933c-.273.068-.546.273-.819.477L3.43 6.368a6.793 6.793 0 019.617 0L9.772 9.71z"/></symbol></svg>