<svg width="0" height="0" class="hidden">
  <symbol fill="none" xmlns="http://www.w3.org/2000/svg" viewBox="0 0 35 24" id="payment-etherium">
    <rect width="35" height="24" rx="4" fill="#F1F4FF"></rect>
    <ellipse cx="17.435" cy="11.935" rx="7.935" ry="7.935" fill="#6481E7"></ellipse>
    <path fill-rule="evenodd" clip-rule="evenodd" d="M17.5281 6.35181V14.362L21.0874 12.2578L17.5281 6.35181Z" fill="#C1CCF5"></path>
    <path fill-rule="evenodd" clip-rule="evenodd" d="M13.9684 12.2578L17.5277 14.362V6.35181L13.9684 12.2578Z" fill="white"></path>
    <path fill-rule="evenodd" clip-rule="evenodd" d="M17.5281 10.64L13.9685 12.2577L17.5279 14.3618L21.0874 12.2579L17.5281 10.64Z" fill="#8299EC"></path>
    <path fill-rule="evenodd" clip-rule="evenodd" d="M17.5281 15.0358V17.9491L21.0898 12.9329L17.5281 15.0358Z" fill="#C1CCF5"></path>
    <path fill-rule="evenodd" clip-rule="evenodd" d="M17.5281 10.64L13.9685 12.2577L17.5279 14.3618L17.5281 10.64Z" fill="#C1CCF5"></path>
    <path fill-rule="evenodd" clip-rule="evenodd" d="M13.9685 12.9329L17.5279 17.9488V15.0358L13.9685 12.9329Z" fill="white"></path>
  </symbol>
  <symbol fill="none" xmlns="http://www.w3.org/2000/svg" viewBox="0 0 35 24" id="payment-gpay">
    <rect width="35" height="24" rx="4" fill="#F1F6FF"></rect>
    <path fill-rule="evenodd" clip-rule="evenodd" d="M16.5301 15.7581V12.7371H18.0893C18.7282 12.7371 19.2675 12.523 19.7071 12.1008L19.8126 11.9938C20.6156 11.1196 20.5629 9.75781 19.7071 8.94905C19.2792 8.52088 18.6931 8.28896 18.0893 8.30085H15.5864V15.7581H16.5301ZM16.5302 11.8213V9.21664H18.1131C18.4531 9.21664 18.7756 9.34747 19.0159 9.58534C19.526 10.0849 19.5377 10.9174 19.0453 11.4348C18.8049 11.6905 18.4649 11.8332 18.1131 11.8213H16.5302ZM24.2147 11.0542C23.8102 10.6796 23.2592 10.4893 22.5617 10.4893C21.6649 10.4893 20.9908 10.8223 20.5453 11.4824L21.3777 12.0116C21.6825 11.5597 22.0986 11.3337 22.6262 11.3337C22.9603 11.3337 23.2827 11.4586 23.5347 11.6846C23.7809 11.8986 23.9216 12.2079 23.9216 12.5349V12.755C23.5582 12.5528 23.101 12.4457 22.5383 12.4457C21.8818 12.4457 21.3542 12.6004 20.9615 12.9155C20.5688 13.2307 20.3695 13.647 20.3695 14.1763C20.3578 14.6579 20.5629 15.1158 20.9263 15.4251C21.2956 15.7581 21.7645 15.9246 22.3155 15.9246C22.9661 15.9246 23.482 15.6332 23.8747 15.0504H23.9157V15.7581H24.8184V12.6123C24.8184 11.9522 24.6191 11.4289 24.2147 11.0542ZM21.6533 14.8185C21.4599 14.6758 21.3426 14.4439 21.3426 14.1941C21.3426 13.9146 21.4716 13.6827 21.7237 13.4983C21.9816 13.314 22.3041 13.2188 22.6851 13.2188C23.2127 13.2129 23.6231 13.3318 23.9162 13.5697C23.9162 13.9741 23.758 14.3249 23.4472 14.6223C23.1658 14.9077 22.7848 15.0683 22.3861 15.0683C22.1223 15.0742 21.8644 14.985 21.6533 14.8185ZM26.8465 18L30 10.6558H28.9743L27.5147 14.319H27.4972L26.0025 10.6558H24.9767L27.0458 15.431L25.8735 18H26.8465Z" fill="#3C4043"></path>
    <path d="M13.2721 12.0829C13.2721 11.7916 13.2487 11.5002 13.2018 11.2147H9.2218V12.862H11.5019C11.4082 13.3912 11.1034 13.867 10.6579 14.1643V15.2347H12.0178C12.8149 14.4914 13.2721 13.3912 13.2721 12.0829Z" fill="#4285F4"></path>
    <path d="M9.22199 16.2695C10.3591 16.2695 11.3204 15.8889 12.0179 15.2347L10.6581 14.1643C10.2771 14.426 9.79056 14.5747 9.22199 14.5747C8.12001 14.5747 7.18802 13.8194 6.85392 12.8085H5.453V13.9146C6.16811 15.3596 7.62764 16.2695 9.22199 16.2695Z" fill="#34A853"></path>
    <path d="M6.85401 12.8085C6.67814 12.2792 6.67814 11.7024 6.85401 11.1672V10.067H5.45288C4.84904 11.2742 4.84904 12.7014 5.45288 13.9086L6.85401 12.8085Z" fill="#FBBC04"></path>
    <path d="M9.22199 9.40102C9.82573 9.38912 10.406 9.62105 10.8398 10.0433L12.0473 8.81824C11.2794 8.09273 10.2712 7.6943 9.22199 7.70619C7.62764 7.70619 6.16811 8.62199 5.453 10.0671L6.85392 11.1732C7.18802 10.1563 8.12001 9.40102 9.22199 9.40102Z" fill="#EA4335"></path>
  </symbol>
  <symbol fill="none" xmlns="http://www.w3.org/2000/svg" viewBox="0 0 35 24" id="payment-mastercard">
    <rect width="35" height="24" rx="4" fill="#FFF4EE"></rect>
    <path fill-rule="evenodd" clip-rule="evenodd" d="M17.75 17.1569C16.5584 18.1852 15.0128 18.806 13.3238 18.806C9.55511 18.806 6.5 15.7154 6.5 11.903C6.5 8.09057 9.55511 5 13.3238 5C15.0128 5 16.5584 5.62075 17.75 6.64903C18.9416 5.62075 20.4872 5 22.1762 5C25.9449 5 29 8.09057 29 11.903C29 15.7154 25.9449 18.806 22.1762 18.806C20.4872 18.806 18.9416 18.1852 17.75 17.1569Z" fill="#ED0006"></path>
    <path fill-rule="evenodd" clip-rule="evenodd" d="M17.75 17.1569C19.2172 15.8908 20.1475 14.0068 20.1475 11.903C20.1475 9.79917 19.2172 7.91517 17.75 6.64903C18.9416 5.62075 20.4872 5 22.1762 5C25.9449 5 29 8.09057 29 11.903C29 15.7154 25.9449 18.806 22.1762 18.806C20.4872 18.806 18.9416 18.1852 17.75 17.1569Z" fill="#F9A000"></path>
    <path fill-rule="evenodd" clip-rule="evenodd" d="M17.7501 6.64905C19.2172 7.91518 20.1476 9.79917 20.1476 11.903C20.1476 14.0068 19.2172 15.8908 17.7501 17.1569C16.2829 15.8908 15.3525 14.0068 15.3525 11.903C15.3525 9.79917 16.2829 7.91518 17.7501 6.64905Z" fill="#FF5E00"></path>
  </symbol>
  <symbol fill="none" xmlns="http://www.w3.org/2000/svg" viewBox="0 0 35 24" id="payment-paypal">
    <rect width="35" height="24" rx="4" fill="#F3FBFF"></rect>
    <path d="M15.2357 17.7689L15.4503 16.4064L14.9724 16.3953H12.6908L14.2764 6.34112C14.2813 6.31077 14.2973 6.28247 14.3207 6.26237C14.3441 6.24228 14.3741 6.2312 14.4052 6.2312H18.2525C19.5297 6.2312 20.4111 6.49698 20.8713 7.02157C21.087 7.26766 21.2244 7.52483 21.2909 7.80783C21.3606 8.1048 21.3619 8.45957 21.2938 8.89229L21.2888 8.92387V9.20113L21.5046 9.32337C21.6863 9.41974 21.8306 9.53008 21.9414 9.65641C22.126 9.86682 22.2454 10.1342 22.2958 10.4513C22.3479 10.7774 22.3306 11.1654 22.2454 11.6046C22.1469 12.11 21.9878 12.5501 21.7729 12.9102C21.5751 13.242 21.3233 13.5171 21.0243 13.7305C20.7388 13.9331 20.3996 14.0869 20.0161 14.1854C19.6445 14.2821 19.2208 14.331 18.7561 14.331H18.4567C18.2427 14.331 18.0346 14.4081 17.8715 14.5463C17.7078 14.6874 17.5994 14.8801 17.5663 15.091L17.5437 15.2136L17.1647 17.615L17.1475 17.7032C17.143 17.7312 17.1352 17.7451 17.1237 17.7546C17.1135 17.7631 17.0987 17.7689 17.0843 17.7689H15.2357Z" fill="#253B80"></path>
    <path d="M21.7079 8.95642C21.6965 9.02983 21.6834 9.10489 21.6686 9.182C21.1612 11.7869 19.4255 12.6868 17.2085 12.6868H16.0798C15.8087 12.6868 15.5803 12.8836 15.538 13.1511L14.96 16.8163L14.7964 17.8551C14.7689 18.0307 14.9043 18.189 15.0814 18.189H17.0835C17.3206 18.189 17.5219 18.0168 17.5592 17.783L17.5789 17.6812L17.9559 15.2892L17.9801 15.158C18.0169 14.9234 18.2187 14.7511 18.4558 14.7511H18.7552C20.6948 14.7511 22.2133 13.9636 22.6571 11.6848C22.8424 10.7328 22.7464 9.93792 22.2559 9.37888C22.1075 9.2103 21.9233 9.07044 21.7079 8.95642Z" fill="#179BD7"></path>
    <path d="M21.1761 8.74412C21.0986 8.72156 21.0186 8.70105 20.9365 8.68259C20.8541 8.66455 20.7696 8.64855 20.6827 8.63461C20.3783 8.58539 20.0449 8.56201 19.6876 8.56201H16.6722C16.5979 8.56201 16.5274 8.57882 16.4643 8.60918C16.3252 8.67603 16.2219 8.8077 16.1969 8.96888L15.5553 13.0319L15.5369 13.1504C15.5791 12.883 15.8076 12.6861 16.0787 12.6861H17.2074C19.4243 12.6861 21.1602 11.7858 21.6675 9.18134C21.6826 9.10423 21.6954 9.02918 21.7068 8.95577C21.5785 8.88768 21.4394 8.82943 21.2897 8.7798C21.2528 8.7675 21.2147 8.75561 21.1761 8.74412Z" fill="#222D65"></path>
    <path d="M16.1987 8.96919C16.2237 8.80799 16.3271 8.67633 16.4661 8.60989C16.5297 8.57953 16.5999 8.56272 16.674 8.56272H19.6896C20.0468 8.56272 20.3803 8.5861 20.6845 8.63532C20.7715 8.64926 20.8561 8.66526 20.9385 8.6833C21.0205 8.70177 21.1005 8.72227 21.178 8.74483C21.2165 8.75631 21.2547 8.7682 21.292 8.7801C21.4417 8.82973 21.5808 8.88838 21.7091 8.95606C21.8601 7.99342 21.7079 7.338 21.1875 6.7445C20.6137 6.09113 19.578 5.8114 18.2528 5.8114H14.4055C14.1347 5.8114 13.9039 6.00827 13.862 6.2761L12.2596 16.4336C12.228 16.6346 12.383 16.8159 12.5856 16.8159H14.9609L15.5572 13.0322L16.1987 8.96919Z" fill="#253B80"></path>
  </symbol>
  <symbol fill="none" xmlns="http://www.w3.org/2000/svg" viewBox="0 0 35 24" id="payment-visa">
    <rect width="35" height="24" rx="4" fill="#EBF3FA"></rect>
    <path d="M14.9741 16.0828H12.9951L14.2329 8.4292H16.2118L14.9741 16.0828Z" fill="#00579F"></path>
    <path d="M22.1473 8.61637C21.757 8.46151 21.1379 8.29053 20.3723 8.29053C18.418 8.29053 17.0418 9.33267 17.0334 10.8226C17.0172 11.9219 18.0187 12.5325 18.7678 12.899C19.5334 13.2735 19.7937 13.518 19.7937 13.8518C19.7859 14.3646 19.175 14.6009 18.6053 14.6009C17.8152 14.6009 17.3918 14.4791 16.7485 14.1938L16.4879 14.0715L16.2109 15.7896C16.6751 16.001 17.5302 16.1887 18.418 16.1969C20.4945 16.1969 21.8464 15.1709 21.8624 13.5831C21.8703 12.7119 21.3414 12.0443 20.2013 11.4988C19.5091 11.1486 19.0852 10.9124 19.0852 10.5541C19.0933 10.2284 19.4437 9.89475 20.2251 9.89475C20.8684 9.87841 21.3411 10.0331 21.6992 10.1878L21.8782 10.2691L22.1473 8.61637Z" fill="#00579F"></path>
    <path d="M24.7786 13.3714C24.9416 12.9317 25.5687 11.23 25.5687 11.23C25.5605 11.2463 25.7314 10.7822 25.8291 10.4972L25.9674 11.1567C25.9674 11.1567 26.3421 12.9887 26.4235 13.3714C26.1142 13.3714 25.1695 13.3714 24.7786 13.3714ZM27.2214 8.4292H25.6907C25.2186 8.4292 24.86 8.5675 24.6563 9.06422L21.7168 16.0827H23.7933C23.7933 16.0827 24.1351 15.1381 24.2086 14.9346C24.4364 14.9346 26.4564 14.9346 26.7495 14.9346C26.8063 15.2033 26.9856 16.0827 26.9856 16.0827H28.8179L27.2214 8.4292Z" fill="#00579F"></path>
    <path d="M11.342 8.4292L9.40391 13.6482L9.19213 12.5897C8.83382 11.3684 7.71008 10.0414 6.45605 9.38162L8.23126 16.0747H10.324L13.4346 8.4292H11.342Z" fill="#00579F"></path>
    <path d="M7.60426 8.4292H4.42027L4.3877 8.58384C6.8714 9.21897 8.51632 10.7499 9.19214 12.5901L8.49997 9.07255C8.38602 8.58373 8.03583 8.44532 7.60426 8.4292Z" fill="#FAA61A"></path>
  </symbol>
  <symbol fill="none" xmlns="http://www.w3.org/2000/svg" viewBox="0 0 35 24" id="payment-apple-pay">
    <rect width="35" height="24" rx="4" fill="#F7F7F7"></rect>
    <path fill-rule="evenodd" clip-rule="evenodd" d="M8.34621 8.93296C8.81625 8.97261 9.28629 8.69506 9.58007 8.34316C9.86895 7.98135 10.0599 7.49563 10.0109 7C9.59476 7.01983 9.08065 7.27755 8.78687 7.63936C8.51758 7.95161 8.28746 8.45715 8.34621 8.93296ZM13.9377 15.3167V7.5898H16.8021C18.2807 7.5898 19.3138 8.62071 19.3138 10.1274C19.3138 11.6341 18.2611 12.675 16.7629 12.675H15.1226V15.3167H13.9377ZM10.006 9.02712C9.59191 9.003 9.21406 9.15319 8.90886 9.2745C8.71246 9.35256 8.54615 9.41867 8.41962 9.41867C8.27763 9.41867 8.10445 9.34903 7.91001 9.27084L7.91001 9.27084L7.91 9.27084L7.91 9.27083C7.65521 9.16838 7.36392 9.05124 7.05845 9.05686C6.35829 9.06677 5.70709 9.46823 5.34966 10.1076C4.61522 11.3863 5.1587 13.2796 5.86866 14.3205C6.2163 14.8359 6.63248 15.4009 7.18086 15.3811C7.42212 15.3719 7.59566 15.2973 7.77526 15.2202C7.98203 15.1314 8.19683 15.0391 8.53223 15.0391C8.856 15.0391 9.0614 15.129 9.25858 15.2152C9.44606 15.2973 9.62611 15.376 9.89339 15.3712C10.4614 15.3613 10.8188 14.8557 11.1664 14.3403C11.5416 13.7871 11.7064 13.2471 11.7315 13.1652L11.7344 13.1557C11.7338 13.1551 11.7292 13.153 11.721 13.1492C11.5956 13.0911 10.637 12.6469 10.6278 11.4557C10.6186 10.4559 11.3881 9.94935 11.5093 9.86961L11.5093 9.86961C11.5166 9.86476 11.5216 9.86149 11.5238 9.85978C11.0342 9.12625 10.2704 9.04695 10.006 9.02712ZM21.478 15.3761C22.2223 15.3761 22.9126 14.9945 23.226 14.3898H23.2505V15.3167H24.3472V11.4706C24.3472 10.3554 23.4659 9.63675 22.1097 9.63675C20.8513 9.63675 19.921 10.3653 19.8868 11.3665H20.9541C21.0423 10.8907 21.478 10.5784 22.0754 10.5784C22.8 10.5784 23.2064 10.9204 23.2064 11.5499V11.9761L21.7277 12.0653C20.3519 12.1496 19.6077 12.7196 19.6077 13.7108C19.6077 14.712 20.3764 15.3761 21.478 15.3761ZM21.7962 14.4592C21.1646 14.4592 20.7631 14.1519 20.7631 13.6811C20.7631 13.1954 21.1499 12.9129 21.8892 12.8683L23.2063 12.784V13.2202C23.2063 13.9438 22.5992 14.4592 21.7962 14.4592ZM27.9851 15.619C27.5102 16.9721 26.9667 17.4181 25.8112 17.4181C25.723 17.4181 25.4293 17.4082 25.3607 17.3884V16.4616C25.4342 16.4715 25.6153 16.4814 25.7084 16.4814C26.2323 16.4814 26.526 16.2584 26.7072 15.6785L26.8149 15.3365L24.8074 9.7111H26.0462L27.4416 14.2759H27.4661L28.8616 9.7111H30.066L27.9851 15.619ZM15.1225 8.60088H16.4886C17.5168 8.60088 18.1044 9.15599 18.1044 10.1324C18.1044 11.1088 17.5168 11.6688 16.4837 11.6688H15.1225V8.60088Z" fill="black"></path>
  </symbol>
  <symbol fill="none" xmlns="http://www.w3.org/2000/svg" viewBox="0 0 35 24" id="payment-bitcoin">
    <rect width="35" height="24" rx="4" fill="#FFF8EF"></rect>
    <path fill-rule="evenodd" clip-rule="evenodd" d="M25.6269 12.0646C25.6269 16.5185 22.0165 20.1292 17.5627 20.1292C13.109 20.1292 9.49854 16.5185 9.49854 12.0646C9.49854 7.61064 13.109 4 17.5627 4C22.0165 4 25.6269 7.61064 25.6269 12.0646ZM19.5001 9.06831C20.6219 9.45354 21.4424 10.0304 21.2815 11.1039C21.1645 11.89 20.7272 12.2701 20.146 12.4033C20.9433 12.8167 21.215 13.6014 20.9626 14.5503C20.4832 15.9157 19.3437 16.0307 17.8281 15.7453L17.4601 17.2131L16.5717 16.9922L16.9347 15.5441C16.7043 15.4871 16.4689 15.4261 16.2265 15.361L15.862 16.8162L14.9746 16.5954L15.3421 15.1246L13.5527 14.6748L13.9941 13.6613C13.9941 13.6613 14.6491 13.8343 14.64 13.8216C14.8916 13.8837 15.0035 13.7203 15.0475 13.6119L16.0447 9.628C16.0559 9.43992 15.9906 9.20294 15.6307 9.11319C15.6443 9.10361 14.9852 8.95335 14.9852 8.95335L15.2216 8.00792L17.0136 8.45013L17.3781 6.99594L18.266 7.21679L17.9091 8.64224C18.148 8.69619 18.388 8.75115 18.6213 8.80914L18.9757 7.39277L19.8641 7.61362L19.5001 9.06831ZM17.3744 11.4941C17.9796 11.6546 19.2964 12.0037 19.5259 11.0883C19.7601 10.1517 18.4807 9.8688 17.8543 9.7303L17.8543 9.73029L17.8542 9.73027C17.7833 9.71459 17.7207 9.70075 17.6697 9.68803L17.2272 11.4558C17.2694 11.4663 17.3189 11.4794 17.3744 11.4941ZM16.6887 14.3404C17.4136 14.5313 18.9988 14.9489 19.2511 13.9402C19.5092 12.9088 17.9722 12.5652 17.2223 12.3976L17.2222 12.3976C17.1385 12.3789 17.0645 12.3623 17.004 12.3473L16.516 14.2956C16.5656 14.3079 16.6237 14.3232 16.6887 14.3403L16.6887 14.3404Z" fill="#F7931A"></path>
  </symbol>
</svg>